<mxfile host="app.diagrams.net" modified="2023-04-09T05:52:42.474Z" agent="Mozilla/5.0 (X11; Linux x86_64) AppleWebKit/537.36 (KHTML, like Gecko) Chrome/112.0.0.0 Safari/537.36 Edg/112.0.1722.34" version="21.1.5" etag="TjW8_EuUVpEnwDWI0Ibs" type="github">
  <diagram name="第 1 页" id="aTYlZIreoIug5KQvOYnU">
    <mxGraphModel>
      <root>
        <mxCell id="0" />
        <mxCell id="1" parent="0" />
      </root>
    </mxGraphModel>
  </diagram>
</mxfile>
